<svg width="312" height="189" viewBox="0 0 313 189" fill="none" xmlns="http://www.w3.org/2000/svg">
<path d="M28.3232 9.15569C28.3232 6.74781 30.2752 4.79584 32.6831 4.79584H278.578C280.986 4.79584 282.938 6.74781 282.938 9.15568V168.726C282.938 171.134 280.986 173.086 278.578 173.086H32.6831C30.2752 173.086 28.3232 171.134 28.3232 168.726V9.15569Z" fill="#E5E8FA"/>
<path opacity="0.4" d="M111.594 173.086L203.369 4.14185H279.23L286.642 9.59165V164.802L279.23 173.086H111.594Z" fill="#F8F9FF"/>
<path fill-rule="evenodd" clip-rule="evenodd" d="M288.604 10.0277C288.604 4.48954 284.114 1.08571e-05 278.576 1.0615e-05L35.7327 0C30.1946 -2.42079e-07 25.7051 4.48953 25.7051 10.0276L25.7051 167.418C25.7051 172.956 30.1946 177.446 35.7327 177.446L278.576 177.446C284.114 177.446 288.604 172.956 288.604 167.418V10.0277ZM282.5 13.9515C282.5 9.61734 278.987 6.1038 274.652 6.1038L39.6566 6.10379C35.3224 6.10379 31.8089 9.61733 31.8089 13.9515L31.8089 164.366C31.8089 168.7 35.3224 172.214 39.6566 172.214L274.652 172.214C278.987 172.214 282.5 168.7 282.5 164.366V13.9515Z" fill="#001A72"/>
<path d="M0.713952 179.976C-0.369147 178.872 0.412384 177.01 1.95837 177.01H310.734C312.375 177.01 313.107 179.069 311.835 180.106L302.15 187.997C301.528 188.505 300.75 188.781 299.947 188.781H10.8232C9.8871 188.781 8.99024 188.405 8.33439 187.737L0.713952 179.976Z" fill="#C1C6E5"/>
<path d="M3.36523 182.678H308.66L302.193 187.989C301.569 188.501 300.787 188.781 299.979 188.781H10.8562C9.92423 188.781 9.03105 188.408 8.37584 187.746L3.36523 182.678Z" fill="#33488E"/>
<path d="M129.779 179.271C129.242 178.241 129.989 177.01 131.15 177.01H181.892C183.162 177.01 183.925 178.418 183.232 179.482C182.642 180.387 181.634 180.934 180.553 180.934H132.521C131.368 180.934 130.311 180.293 129.779 179.271Z" fill="#33488E"/>
</svg>
