<svg width="156" height="42" viewBox="0 0 156 42" fill="none" xmlns="http://www.w3.org/2000/svg">
<path d="M148.976 15.8334V5.56674H155.195V6.68141H150.12V14.7187H155.166V15.8334H148.976ZM149.504 11.1107V9.99608H154.374V11.1107H149.504Z" fill="#FCFCFF"/>
<path d="M140.225 15.8334L136.25 5.56674H137.541L140.093 12.2547C140.21 12.5579 140.313 12.8267 140.401 13.0614C140.489 13.2961 140.567 13.521 140.636 13.7361C140.714 13.9414 140.787 14.1467 140.856 14.3521C140.924 14.5574 140.997 14.7823 141.076 15.0267L140.694 15.0414C140.792 14.709 140.885 14.401 140.973 14.1174C141.071 13.8339 141.169 13.5454 141.266 13.2521C141.374 12.949 141.506 12.597 141.662 12.1961L144.2 5.56674H145.49L141.398 15.8334H140.225Z" fill="#FCFCFF"/>
<path d="M128.78 15.8334V14.7481H130.437V6.65208H128.78V5.56674H133.239V6.65208H131.581V14.7481H133.239V15.8334H128.78Z" fill="#FCFCFF"/>
<path d="M121.521 15.8334V6.68141H118.588V5.56674H125.716V6.68141H122.665V15.8334H121.521Z" fill="#FCFCFF"/>
<path d="M107.763 15.8334L111.694 5.56674H112.999L116.901 15.8334H115.654L113.146 9.17474C113.077 8.98896 112.999 8.77385 112.911 8.52941C112.833 8.27519 112.745 8.01608 112.647 7.75208C112.559 7.4783 112.471 7.2143 112.383 6.96008C112.305 6.70585 112.232 6.48096 112.163 6.28541H112.457C112.378 6.52985 112.295 6.77919 112.207 7.03341C112.129 7.27785 112.046 7.52719 111.958 7.78141C111.87 8.02585 111.782 8.2703 111.694 8.51474C111.606 8.75919 111.518 9.00363 111.43 9.24808L108.937 15.8334H107.763ZM109.435 13.0027L109.861 11.8881H114.715L115.185 13.0027H109.435Z" fill="#FCFCFF"/>
<path d="M95.7495 15.8334V5.56674H96.7908L103.508 14.4547L103.303 14.7187C103.274 14.5623 103.249 14.3276 103.23 14.0147C103.22 13.7019 103.205 13.3499 103.186 12.9587C103.176 12.5579 103.166 12.1423 103.156 11.7121C103.146 11.2819 103.137 10.8614 103.127 10.4507C103.127 10.0401 103.127 9.66852 103.127 9.33608V5.56674H104.271V15.8334H103.2L96.5122 7.06274L96.6882 6.75474C96.7175 7.14585 96.742 7.53208 96.7615 7.91341C96.7908 8.29474 96.8104 8.66141 96.8202 9.01341C96.8397 9.36541 96.8544 9.68808 96.8642 9.98141C96.874 10.2747 96.8788 10.5241 96.8788 10.7294C96.8886 10.9347 96.8935 11.0814 96.8935 11.1694V15.8334H95.7495Z" fill="#FCFCFF"/>
<path d="M82.2828 15.8334V6.68141H79.3494V5.56674H86.4774V6.68141H83.4268V15.8334H82.2828Z" fill="#FCFCFF"/>
<path d="M73.1485 15.9801C72.4152 15.9801 71.7405 15.853 71.1245 15.5987C70.5085 15.3347 69.9756 14.9681 69.5259 14.4987C69.0761 14.0196 68.7241 13.4574 68.4699 12.8121C68.2254 12.1667 68.1032 11.4627 68.1032 10.7001C68.1032 9.94719 68.2254 9.25785 68.4699 8.63207C68.7241 7.99652 69.081 7.44407 69.5405 6.97474C70.0001 6.49563 70.533 6.12896 71.1392 5.87474C71.7454 5.62052 72.4103 5.49341 73.1339 5.49341C73.613 5.49341 74.0872 5.57163 74.5565 5.72808C75.0259 5.87474 75.4561 6.08008 75.8472 6.34408C76.2481 6.60808 76.5756 6.91119 76.8299 7.25341L76.0379 8.07474C75.7934 7.78141 75.5099 7.52719 75.1872 7.31208C74.8743 7.09696 74.5419 6.93074 74.1899 6.81341C73.8379 6.69607 73.4859 6.63741 73.1339 6.63741C72.5863 6.63741 72.073 6.74008 71.5939 6.94541C71.1245 7.14096 70.7187 7.41963 70.3765 7.78141C70.0343 8.14319 69.7654 8.57341 69.5699 9.07208C69.3841 9.57074 69.2912 10.1134 69.2912 10.7001C69.2912 11.3063 69.3841 11.8636 69.5699 12.3721C69.7654 12.8805 70.0392 13.3205 70.3912 13.6921C70.753 14.0539 71.1734 14.3374 71.6525 14.5427C72.1414 14.7383 72.6841 14.8361 73.2805 14.8361C73.6325 14.8361 73.9845 14.7872 74.3365 14.6894C74.6885 14.5819 75.0112 14.4352 75.3045 14.2494C75.5979 14.0636 75.8472 13.8534 76.0525 13.6187L76.6392 14.5721C76.4143 14.8459 76.1112 15.0903 75.7299 15.3054C75.3583 15.5107 74.9476 15.677 74.4979 15.8041C74.0481 15.9214 73.5983 15.9801 73.1485 15.9801Z" fill="#FCFCFF"/>
<path d="M56.5558 15.8334L60.4865 5.56674H61.7918L65.6932 15.8334H64.4465L61.9385 9.17474C61.87 8.98896 61.7918 8.77385 61.7038 8.52941C61.6256 8.27519 61.5376 8.01608 61.4398 7.75208C61.3518 7.4783 61.2638 7.2143 61.1758 6.96008C61.0976 6.70585 61.0243 6.48096 60.9558 6.28541H61.2492C61.1709 6.52985 61.0878 6.77919 60.9998 7.03341C60.9216 7.27785 60.8385 7.52719 60.7505 7.78141C60.6625 8.02585 60.5745 8.2703 60.4865 8.51474C60.3985 8.75919 60.3105 9.00363 60.2225 9.24808L57.7292 15.8334H56.5558ZM58.2278 13.0027L58.6532 11.8881H63.5078L63.9772 13.0027H58.2278Z" fill="#FCFCFF"/>
<path d="M47.3066 15.8334V5.56674H53.5253V6.68141H48.4506V14.7187H53.496V15.8334H47.3066ZM47.8346 11.1107V9.99608H52.704V11.1107H47.8346Z" fill="#FCFCFF"/>
<path d="M36.0111 15.8334V5.56674H40.0297C40.6262 5.56674 41.164 5.70852 41.6431 5.99208C42.132 6.26585 42.5182 6.6423 42.8017 7.12141C43.0853 7.60052 43.2271 8.14319 43.2271 8.74941C43.2271 9.31652 43.0902 9.82985 42.8164 10.2894C42.5426 10.749 42.1711 11.1156 41.7017 11.3894C41.2324 11.6534 40.7044 11.7854 40.1177 11.7854H37.1551V15.8334H36.0111ZM42.2737 15.8334L39.6924 11.3161L40.7924 10.9347L43.6377 15.8334H42.2737ZM37.1551 10.6707H40.2204C40.5822 10.6707 40.9 10.5876 41.1737 10.4214C41.4475 10.2552 41.6626 10.0303 41.8191 9.74674C41.9755 9.45341 42.0537 9.12096 42.0537 8.74941C42.0537 8.34852 41.9608 7.99163 41.7751 7.67874C41.5893 7.36585 41.3302 7.12141 40.9977 6.94541C40.6751 6.76941 40.3035 6.68141 39.8831 6.68141H37.1551V10.6707Z" fill="#FCFCFF"/>
<path d="M107.86 36.3667C106.82 36.3667 105.9 36.2001 105.1 35.8667C104.313 35.5334 103.686 35.0867 103.22 34.5267L105.16 32.8467C105.573 33.2601 106.04 33.5667 106.56 33.7667C107.08 33.9534 107.573 34.0467 108.04 34.0467C108.226 34.0467 108.393 34.0267 108.54 33.9867C108.686 33.9467 108.806 33.8934 108.9 33.8267C109.006 33.7467 109.086 33.6601 109.14 33.5667C109.193 33.4601 109.22 33.3401 109.22 33.2067C109.22 32.9401 109.1 32.7334 108.86 32.5867C108.74 32.5201 108.54 32.4401 108.26 32.3467C107.98 32.2534 107.62 32.1467 107.18 32.0267C106.553 31.8667 106.006 31.6801 105.54 31.4667C105.086 31.2401 104.713 30.9801 104.42 30.6867C104.153 30.4067 103.946 30.1001 103.8 29.7667C103.653 29.4201 103.58 29.0334 103.58 28.6067C103.58 28.1134 103.693 27.6667 103.92 27.2667C104.16 26.8667 104.473 26.5201 104.86 26.2267C105.26 25.9334 105.713 25.7134 106.22 25.5667C106.74 25.4067 107.273 25.3267 107.82 25.3267C108.406 25.3267 108.966 25.3934 109.5 25.5267C110.033 25.6601 110.526 25.8467 110.98 26.0867C111.446 26.3267 111.86 26.6134 112.22 26.9467L110.54 28.8267C110.3 28.6001 110.026 28.4001 109.72 28.2267C109.426 28.0401 109.12 27.8934 108.8 27.7867C108.48 27.6801 108.186 27.6267 107.92 27.6267C107.72 27.6267 107.54 27.6467 107.38 27.6867C107.233 27.7134 107.106 27.7667 107 27.8467C106.893 27.9134 106.813 28.0001 106.76 28.1067C106.706 28.2001 106.68 28.3134 106.68 28.4467C106.68 28.5801 106.713 28.7067 106.78 28.8267C106.86 28.9467 106.966 29.0467 107.1 29.1267C107.233 29.2067 107.446 29.3001 107.74 29.4067C108.033 29.5001 108.433 29.6201 108.94 29.7667C109.566 29.9401 110.106 30.1334 110.56 30.3467C111.013 30.5601 111.373 30.8134 111.64 31.1067C111.853 31.3334 112.013 31.6001 112.12 31.9067C112.226 32.2001 112.28 32.5201 112.28 32.8667C112.28 33.5467 112.086 34.1534 111.7 34.6867C111.326 35.2067 110.806 35.6201 110.14 35.9267C109.473 36.2201 108.713 36.3667 107.86 36.3667Z" fill="#FCFCFF"/>
<path d="M91.5843 36.1667V25.5467H94.6243L94.7243 27.7067L94.0843 27.9467C94.231 27.4667 94.491 27.0334 94.8643 26.6467C95.251 26.2467 95.711 25.9267 96.2443 25.6867C96.7776 25.4467 97.3376 25.3267 97.9243 25.3267C98.7243 25.3267 99.3976 25.4934 99.9443 25.8267C100.491 26.1467 100.904 26.6334 101.184 27.2867C101.464 27.9267 101.604 28.7134 101.604 29.6467V36.1667H98.3843V29.9067C98.3843 29.4801 98.3243 29.1267 98.2043 28.8467C98.0843 28.5667 97.8976 28.3601 97.6443 28.2267C97.4043 28.0801 97.1043 28.0134 96.7443 28.0267C96.4643 28.0267 96.2043 28.0734 95.9643 28.1667C95.7243 28.2467 95.5176 28.3734 95.3443 28.5467C95.171 28.7067 95.031 28.8934 94.9243 29.1067C94.831 29.3201 94.7843 29.5534 94.7843 29.8067V36.1667H93.2043C92.831 36.1667 92.511 36.1667 92.2443 36.1667C91.9776 36.1667 91.7576 36.1667 91.5843 36.1667Z" fill="#FCFCFF"/>
<path d="M84.9257 36.3667C83.7523 36.3667 82.7323 36.1334 81.8657 35.6667C80.999 35.1867 80.3256 34.5401 79.8456 33.7267C79.3657 32.9001 79.1256 31.9601 79.1256 30.9067C79.1256 30.0934 79.259 29.3467 79.5257 28.6667C79.7923 27.9867 80.1657 27.4001 80.6457 26.9067C81.1257 26.4001 81.6923 26.0134 82.3456 25.7467C83.0123 25.4667 83.739 25.3267 84.5257 25.3267C85.2723 25.3267 85.9523 25.4601 86.5657 25.7267C87.1923 25.9934 87.7323 26.3667 88.1856 26.8467C88.639 27.3267 88.9856 27.8934 89.2256 28.5467C89.4656 29.2001 89.5723 29.9134 89.5457 30.6867L89.5257 31.5467H81.0657L80.6056 29.7467H86.9257L86.5857 30.1267V29.7267C86.559 29.3934 86.4523 29.1001 86.2657 28.8467C86.0923 28.5801 85.859 28.3734 85.5657 28.2267C85.2723 28.0801 84.939 28.0067 84.5657 28.0067C84.0457 28.0067 83.599 28.1134 83.2257 28.3267C82.8657 28.5267 82.5923 28.8267 82.4057 29.2267C82.219 29.6134 82.1257 30.0934 82.1257 30.6667C82.1257 31.2534 82.2456 31.7667 82.4856 32.2067C82.739 32.6334 83.099 32.9667 83.5657 33.2067C84.0457 33.4467 84.6123 33.5667 85.2657 33.5667C85.719 33.5667 86.119 33.5001 86.4656 33.3667C86.8256 33.2334 87.2123 33.0067 87.6257 32.6867L89.1257 34.8067C88.7123 35.1667 88.2723 35.4601 87.8057 35.6867C87.339 35.9134 86.859 36.0801 86.3657 36.1867C85.8856 36.3067 85.4057 36.3667 84.9257 36.3667Z" fill="#FCFCFF"/>
<path d="M73.2069 36.3667C72.0336 36.3667 71.0136 36.1334 70.1469 35.6667C69.2802 35.1867 68.6069 34.5401 68.1269 33.7267C67.6469 32.9001 67.4069 31.9601 67.4069 30.9067C67.4069 30.0934 67.5402 29.3467 67.8069 28.6667C68.0736 27.9867 68.4469 27.4001 68.9269 26.9067C69.4069 26.4001 69.9736 26.0134 70.6269 25.7467C71.2936 25.4667 72.0202 25.3267 72.8069 25.3267C73.5536 25.3267 74.2336 25.4601 74.8469 25.7267C75.4736 25.9934 76.0136 26.3667 76.4669 26.8467C76.9202 27.3267 77.2669 27.8934 77.5069 28.5467C77.7469 29.2001 77.8536 29.9134 77.8269 30.6867L77.8069 31.5467H69.3469L68.8869 29.7467H75.2069L74.8669 30.1267V29.7267C74.8402 29.3934 74.7336 29.1001 74.5469 28.8467C74.3736 28.5801 74.1402 28.3734 73.8469 28.2267C73.5536 28.0801 73.2202 28.0067 72.8469 28.0067C72.3269 28.0067 71.8802 28.1134 71.5069 28.3267C71.1469 28.5267 70.8736 28.8267 70.6869 29.2267C70.5002 29.6134 70.4069 30.0934 70.4069 30.6667C70.4069 31.2534 70.5269 31.7667 70.7669 32.2067C71.0202 32.6334 71.3802 32.9667 71.8469 33.2067C72.3269 33.4467 72.8936 33.5667 73.5469 33.5667C74.0002 33.5667 74.4002 33.5001 74.7469 33.3667C75.1069 33.2334 75.4936 33.0067 75.9069 32.6867L77.4069 34.8067C76.9936 35.1667 76.5536 35.4601 76.0869 35.6867C75.6202 35.9134 75.1402 36.0801 74.6469 36.1867C74.1669 36.3067 73.6869 36.3667 73.2069 36.3667Z" fill="#FCFCFF"/>
<path d="M59.4945 36.1667V25.5467H62.5345L62.6745 29.0067L62.0745 28.3467C62.2345 27.7734 62.4945 27.2601 62.8545 26.8067C63.2278 26.3534 63.6611 25.9934 64.1545 25.7267C64.6478 25.4601 65.1745 25.3267 65.7345 25.3267C65.9745 25.3267 66.1945 25.3467 66.3945 25.3867C66.6078 25.4267 66.8011 25.4734 66.9745 25.5267L66.0945 29.0667C65.9478 28.9734 65.7478 28.9001 65.4945 28.8467C65.2545 28.7801 65.0011 28.7467 64.7345 28.7467C64.4411 28.7467 64.1678 28.8001 63.9145 28.9067C63.6611 29.0001 63.4478 29.1401 63.2745 29.3267C63.1011 29.5134 62.9611 29.7334 62.8545 29.9867C62.7611 30.2401 62.7145 30.5267 62.7145 30.8467V36.1667H59.4945Z" fill="#FCFCFF"/>
<path d="M53.2561 36.3667C52.2295 36.3667 51.3095 36.1267 50.4961 35.6467C49.6828 35.1667 49.0361 34.5134 48.5561 33.6867C48.0895 32.8467 47.8561 31.9001 47.8561 30.8467C47.8561 29.7934 48.0895 28.8534 48.5561 28.0267C49.0361 27.1867 49.6828 26.5267 50.4961 26.0467C51.3095 25.5667 52.2295 25.3267 53.2561 25.3267C54.2028 25.3267 55.0695 25.4934 55.8561 25.8267C56.6561 26.1601 57.2895 26.6267 57.7561 27.2267L56.0161 29.3067C55.8295 29.0934 55.6095 28.8934 55.3561 28.7067C55.1028 28.5201 54.8228 28.3734 54.5161 28.2667C54.2095 28.1601 53.8895 28.1067 53.5561 28.1067C53.0495 28.1067 52.6028 28.2267 52.2161 28.4667C51.8295 28.6934 51.5295 29.0134 51.3161 29.4267C51.1028 29.8401 50.9961 30.3134 50.9961 30.8467C50.9961 31.3534 51.1028 31.8134 51.3161 32.2267C51.5428 32.6401 51.8495 32.9667 52.2361 33.2067C52.6228 33.4467 53.0628 33.5667 53.5561 33.5667C53.9028 33.5667 54.2228 33.5267 54.5161 33.4467C54.8095 33.3534 55.0761 33.2201 55.3161 33.0467C55.5695 32.8734 55.8028 32.6601 56.0161 32.4067L57.7361 34.5067C57.2828 35.0801 56.6495 35.5334 55.8361 35.8667C55.0361 36.2001 54.1761 36.3667 53.2561 36.3667Z" fill="#FCFCFF"/>
<path d="M40.9004 36.3667C39.9804 36.3667 39.1471 36.2601 38.4004 36.0467C37.6671 35.8201 37.0137 35.5001 36.4404 35.0867C35.8671 34.6601 35.3537 34.1601 34.9004 33.5867L36.9604 31.2467C37.6271 32.1401 38.2937 32.7401 38.9604 33.0467C39.6404 33.3534 40.3404 33.5067 41.0604 33.5067C41.4204 33.5067 41.7471 33.4601 42.0404 33.3667C42.3337 33.2734 42.5604 33.1401 42.7204 32.9667C42.8804 32.7801 42.9604 32.5534 42.9604 32.2867C42.9604 32.0867 42.9071 31.9067 42.8004 31.7467C42.7071 31.5867 42.5737 31.4467 42.4004 31.3267C42.2271 31.2067 42.0204 31.1001 41.7804 31.0067C41.5404 30.9001 41.2871 30.8134 41.0204 30.7467C40.7537 30.6667 40.4804 30.6001 40.2004 30.5467C39.4271 30.3734 38.7537 30.1601 38.1804 29.9067C37.6071 29.6534 37.1271 29.3467 36.7404 28.9867C36.3671 28.6134 36.0871 28.1934 35.9004 27.7267C35.7137 27.2467 35.6204 26.7134 35.6204 26.1267C35.6204 25.5001 35.7604 24.9267 36.0404 24.4067C36.3337 23.8734 36.7204 23.4201 37.2004 23.0467C37.6937 22.6601 38.2604 22.3667 38.9004 22.1667C39.5404 21.9534 40.2071 21.8467 40.9004 21.8467C41.8204 21.8467 42.6071 21.9467 43.2604 22.1467C43.9271 22.3334 44.4937 22.6067 44.9604 22.9667C45.4404 23.3267 45.8471 23.7601 46.1804 24.2667L44.0804 26.2867C43.8004 25.9401 43.4937 25.6534 43.1604 25.4267C42.8404 25.2001 42.4937 25.0267 42.1204 24.9067C41.7604 24.7867 41.3871 24.7267 41.0004 24.7267C40.6004 24.7267 40.2537 24.7801 39.9604 24.8867C39.6804 24.9801 39.4604 25.1201 39.3004 25.3067C39.1404 25.4801 39.0604 25.6934 39.0604 25.9467C39.0604 26.1734 39.1271 26.3667 39.2604 26.5267C39.3937 26.6867 39.5737 26.8334 39.8004 26.9667C40.0271 27.0867 40.2871 27.1934 40.5804 27.2867C40.8737 27.3667 41.1804 27.4334 41.5004 27.4867C42.2337 27.6334 42.8937 27.8267 43.4804 28.0667C44.0804 28.3067 44.5937 28.6001 45.0204 28.9467C45.4604 29.2934 45.7937 29.7067 46.0204 30.1867C46.2604 30.6534 46.3804 31.2001 46.3804 31.8267C46.3804 32.8001 46.1404 33.6267 45.6604 34.3067C45.1937 34.9734 44.5471 35.4867 43.7204 35.8467C42.9071 36.1934 41.9671 36.3667 40.9004 36.3667Z" fill="#FCFCFF"/>
<path fill-rule="evenodd" clip-rule="evenodd" d="M15.1768 13.4394L1.5495 5.61033C1.36273 5.50303 1.21131 5.59001 1.21131 5.80463L1.21131 32.2171C1.21131 32.4317 1.36273 32.6927 1.5495 32.8L15.1768 40.6291C15.3636 40.7364 15.515 40.6494 15.515 40.4348V14.0223C15.515 13.8077 15.3636 13.5467 15.1768 13.4394ZM1.5495 5.22461C1.17733 5.01079 0.875624 5.18413 0.875624 5.61177L0.875623 32.0243C0.875623 32.4519 1.17733 32.9719 1.5495 33.1857L15.1768 41.0148C15.549 41.2286 15.8507 41.0553 15.8507 40.6277L15.8507 14.2152C15.8507 13.7875 15.549 13.2675 15.1768 13.0537L1.5495 5.22461Z" fill="#FCFCFF"/>
<path fill-rule="evenodd" clip-rule="evenodd" d="M23.4836 9.30644L9.85627 1.47733C9.6695 1.37002 9.51809 1.45701 9.51809 1.67162L9.51809 28.0841C9.51809 28.2987 9.6695 28.5597 9.85627 28.667L23.4836 36.4961C23.6703 36.6034 23.8218 36.5164 23.8218 36.3018V9.88932C23.8218 9.67471 23.6704 9.41374 23.4836 9.30644ZM9.85627 1.09161C9.4841 0.877791 9.1824 1.05113 9.1824 1.47876L9.1824 27.8913C9.1824 28.3189 9.4841 28.8389 9.85627 29.0527L23.4836 36.8818C23.8557 37.0956 24.1574 36.9223 24.1574 36.4947L24.1575 10.0822C24.1575 9.65454 23.8557 9.13454 23.4836 8.92072L9.85627 1.09161Z" fill="#FCFCFF"/>
<path fill-rule="evenodd" clip-rule="evenodd" d="M11.8805 3.75227C11.9755 3.91607 11.9755 4.09311 11.8805 4.1477L10.9294 4.6941L11.8805 6.3333C11.9755 6.49709 11.9755 6.67413 11.8805 6.72873C11.7855 6.78333 11.6314 6.69481 11.5364 6.53101L10.4132 4.59524C10.3182 4.43145 10.3182 4.25441 10.4132 4.19982L11.5364 3.55456C11.6314 3.49996 11.7855 3.58848 11.8805 3.75227Z" fill="#FCFCFF"/>
<path fill-rule="evenodd" clip-rule="evenodd" d="M23.9807 15.2625L9.39861 7.01066V6.49821L23.9607 14.8298L23.9807 15.2625Z" fill="#FCFCFF"/>
<path fill-rule="evenodd" clip-rule="evenodd" d="M9.36858 1.47383C9.39875 1.40032 9.44896 1.33567 9.5244 1.29233C9.59833 1.24986 9.67785 1.23858 9.75525 1.24835C9.60787 1.16613 9.51602 1.18107 9.47251 1.20607C9.42895 1.23109 9.3697 1.30312 9.36858 1.47383ZM23.6356 14.4293V9.88932C23.6356 9.82259 23.6108 9.73573 23.5617 9.65107C23.5126 9.56644 23.4493 9.50144 23.3908 9.46786L9.76353 1.63876C9.73864 1.62445 9.72126 1.61961 9.7118 1.61813C9.7085 1.62688 9.70426 1.64385 9.70426 1.67162V6.45859L23.6356 14.4293ZM8.99623 9.28817L8.99623 1.47876C8.99623 1.22538 9.08712 0.998069 9.28703 0.883215C9.48661 0.768553 9.72907 0.803823 9.94902 0.930184L23.5763 8.75929C23.7973 8.88628 23.9871 9.0968 24.1211 9.32784C24.2551 9.55884 24.3436 9.82779 24.3436 10.0822L24.3436 36.4947C24.3436 36.7481 24.2527 36.9754 24.0528 37.0902C23.8532 37.2049 23.6108 37.1696 23.3908 37.0433L16.0368 32.8183V40.6277C16.0368 40.8811 15.946 41.1084 15.746 41.2232C15.5465 41.3379 15.304 41.3026 15.0841 41.1763L1.45676 33.3471C1.23573 33.2202 1.04602 33.0096 0.911968 32.7786C0.777942 32.5476 0.689453 32.2787 0.689453 32.0243L0.689454 5.61177C0.689454 5.35838 0.780341 5.13107 0.980256 5.01622C1.17983 4.90156 1.4223 4.93682 1.64224 5.06319L8.99623 9.28817ZM1.44848 5.38135C1.3011 5.29913 1.20925 5.31407 1.16574 5.33907C1.12218 5.3641 1.06293 5.43613 1.06181 5.60683C1.09198 5.53332 1.14219 5.46867 1.21763 5.42533C1.29155 5.38286 1.37107 5.37158 1.44848 5.38135ZM15.2778 40.8581C15.4252 40.9403 15.5171 40.9254 15.5606 40.9004C15.6041 40.8753 15.6634 40.8033 15.6645 40.6326C15.6343 40.7061 15.5841 40.7708 15.5087 40.8141C15.4348 40.8566 15.3552 40.8679 15.2778 40.8581ZM16.0368 32.0031L23.5763 36.3347C23.6012 36.349 23.6186 36.3538 23.628 36.3553C23.6313 36.3466 23.6356 36.3296 23.6356 36.3018V15.2812L9.70426 7.39754V9.69495L15.2695 12.8923C15.4906 13.0193 15.6803 13.2298 15.8143 13.4608C15.9484 13.6918 16.0368 13.9608 16.0368 14.2152L16.0368 32.0031ZM8.99623 10.1033L8.99623 27.8913C8.99623 28.1457 9.08471 28.4146 9.21874 28.6456C9.35279 28.8766 9.54251 29.0872 9.76353 29.2141L15.3288 32.4115V40.4348C15.3288 40.4626 15.3246 40.4796 15.3213 40.4883C15.3118 40.4868 15.2944 40.482 15.2695 40.4677L1.64224 32.6386C1.58379 32.605 1.5205 32.54 1.4714 32.4554C1.42227 32.3707 1.39748 32.2838 1.39748 32.2171L1.39749 5.80463C1.39749 5.77685 1.40173 5.75988 1.40502 5.75113C1.41448 5.75261 1.43186 5.75745 1.45676 5.77176L8.99623 10.1033ZM9.70426 10.5101L15.0841 13.6009C15.1425 13.6344 15.2058 13.6994 15.2549 13.7841C15.304 13.8687 15.3288 13.9556 15.3288 14.0223V31.5964L9.94902 28.5056C9.89057 28.472 9.82727 28.407 9.77817 28.3224C9.72905 28.2377 9.70426 28.1508 9.70426 28.0841V10.5101ZM9.70426 6.96972V6.88757L22.8457 14.4063L9.70426 6.96972ZM23.9713 36.4996C23.9411 36.5731 23.8909 36.6378 23.8154 36.6811C23.7415 36.7236 23.662 36.7349 23.5846 36.7251C23.732 36.8073 23.8238 36.7924 23.8673 36.7674C23.9109 36.7423 23.9701 36.6703 23.9713 36.4996ZM11.8012 3.41009C11.8965 3.46485 11.9806 3.55376 12.0415 3.65884C12.1025 3.7639 12.1379 3.88101 12.1379 3.99094C12.1379 4.09538 12.1028 4.23467 11.9732 4.30913L11.1843 4.76239L12.0415 6.23987C12.1025 6.34493 12.1379 6.46204 12.1379 6.57196C12.1379 6.6764 12.1028 6.8157 11.9732 6.89015C11.844 6.96439 11.7061 6.92512 11.6157 6.87319C11.5204 6.81844 11.4363 6.72952 11.3753 6.62444L10.2522 4.68867C10.1913 4.58362 10.1558 4.46651 10.1558 4.35658C10.1558 4.25214 10.1909 4.11284 10.3205 4.03839L11.4436 3.39313C11.5728 3.3189 11.7108 3.35816 11.8012 3.41009ZM11.5958 3.72416C11.5958 3.72416 11.5966 3.72415 11.5983 3.72468C11.5967 3.72453 11.5958 3.72416 11.5958 3.72416ZM11.6074 3.72848C11.6097 3.72965 11.6125 3.73112 11.6157 3.73295C11.6449 3.74975 11.6854 3.78699 11.7195 3.8457C11.7536 3.90444 11.7656 3.95775 11.7656 3.99094C11.7656 3.99406 11.7655 3.99678 11.7654 3.99913L10.8367 4.53268C10.7938 4.55734 10.7624 4.59809 10.7496 4.64592C10.7368 4.69374 10.7436 4.7447 10.7684 4.78753L11.7195 6.42673C11.7381 6.4589 11.7502 6.48944 11.7573 6.51594C11.7374 6.49638 11.7164 6.47032 11.6974 6.43758L10.5743 4.50182C10.5402 4.44308 10.5281 4.38977 10.5281 4.35658C10.5281 4.35346 10.5282 4.35074 10.5283 4.34839L11.6074 3.72848ZM10.5303 4.33579C10.5303 4.33579 10.5302 4.33673 10.5295 4.33818C10.5299 4.33645 10.5303 4.33579 10.5303 4.33579ZM11.7635 6.59275C11.7635 6.59275 11.7636 6.59181 11.7642 6.59037C11.7638 6.59211 11.7635 6.59275 11.7635 6.59275ZM11.8186 6.5586C11.8202 6.55876 11.8211 6.55912 11.8211 6.55912C11.8211 6.55912 11.8203 6.55914 11.8186 6.5586ZM11.7635 4.01173C11.7635 4.01173 11.7636 4.01079 11.7642 4.00934C11.7638 4.01108 11.7635 4.01173 11.7635 4.01173Z" fill="#FCFCFF"/>
</svg>
