<svg width="155" height="40" viewBox="0 0 155 40" fill="none" xmlns="http://www.w3.org/2000/svg">
<path d="M8.26137 8.58048L0.670738 4.21038C0.3003 3.99711 5.91449e-07 4.17 5.82026e-07 4.59654L0 30.9412C-9.42327e-09 31.3677 0.3003 31.8864 0.670738 32.0997L14.2345 39.9086C14.605 40.1219 14.9053 39.949 14.9053 39.5225L14.9053 31.4195L8.9321 27.9806C8.56167 27.7674 8.26137 27.2487 8.26137 26.8221V8.58048Z" fill="#1A30AD"/>
<path d="M8.26139 0.477508C8.26139 0.0509687 8.56169 -0.121921 8.93213 0.0913489L22.4959 7.90035C22.8664 8.11362 23.1667 8.63228 23.1667 9.05882L23.1667 35.4035C23.1667 35.83 22.8664 36.0029 22.4959 35.7896L8.9321 27.9806C8.56167 27.7674 8.26137 27.2487 8.26137 26.8221L8.26139 0.477508Z" fill="#76C7FA"/>
<path d="M23.1666 14.2076L23.1667 9.05882C23.1667 8.63228 22.8664 8.11362 22.4959 7.90035L8.93213 0.0913489C8.56169 -0.121921 8.26139 0.0509687 8.26139 0.477508L8.26132 5.6263L23.1666 14.2076Z" fill="#A6DBFC"/>
<path fill-rule="evenodd" clip-rule="evenodd" d="M10.9559 2.74413C11.0505 2.9075 11.0505 3.08409 10.9559 3.13854L10.0092 3.68354L10.9559 5.31852C11.0505 5.4819 11.0505 5.65848 10.9559 5.71294C10.8613 5.7674 10.7079 5.6791 10.6133 5.51573L9.49544 3.58493C9.40085 3.42156 9.40085 3.24498 9.49544 3.19052L10.6133 2.54692C10.7079 2.49247 10.8613 2.58076 10.9559 2.74413Z" fill="#1A30AD"/>
<path d="M147.976 14.8334V4.56674H154.195V5.68141H149.12V13.7187H154.166V14.8334H147.976ZM148.504 10.1107V8.99608H153.374V10.1107H148.504Z" fill="#001A72"/>
<path d="M139.225 14.8334L135.25 4.56674H136.541L139.093 11.2547C139.21 11.5579 139.313 11.8267 139.401 12.0614C139.489 12.2961 139.567 12.521 139.636 12.7361C139.714 12.9414 139.787 13.1467 139.856 13.3521C139.924 13.5574 139.997 13.7823 140.076 14.0267L139.694 14.0414C139.792 13.709 139.885 13.401 139.973 13.1174C140.071 12.8339 140.169 12.5454 140.266 12.2521C140.374 11.949 140.506 11.597 140.662 11.1961L143.2 4.56674H144.49L140.398 14.8334H139.225Z" fill="#001A72"/>
<path d="M127.78 14.8334V13.7481H129.437V5.65208H127.78V4.56674H132.239V5.65208H130.581V13.7481H132.239V14.8334H127.78Z" fill="#001A72"/>
<path d="M120.521 14.8334V5.68141H117.588V4.56674H124.716V5.68141H121.665V14.8334H120.521Z" fill="#001A72"/>
<path d="M106.763 14.8334L110.694 4.56674H111.999L115.901 14.8334H114.654L112.146 8.17474C112.077 7.98896 111.999 7.77385 111.911 7.52941C111.833 7.27519 111.745 7.01608 111.647 6.75208C111.559 6.4783 111.471 6.2143 111.383 5.96008C111.305 5.70585 111.232 5.48096 111.163 5.28541H111.457C111.378 5.52985 111.295 5.77919 111.207 6.03341C111.129 6.27785 111.046 6.52719 110.958 6.78141C110.87 7.02585 110.782 7.2703 110.694 7.51474C110.606 7.75919 110.518 8.00363 110.43 8.24808L107.937 14.8334H106.763ZM108.435 12.0027L108.861 10.8881H113.715L114.185 12.0027H108.435Z" fill="#001A72"/>
<path d="M94.7495 14.8334V4.56674H95.7908L102.508 13.4547L102.303 13.7187C102.274 13.5623 102.249 13.3276 102.23 13.0147C102.22 12.7019 102.205 12.3499 102.186 11.9587C102.176 11.5579 102.166 11.1423 102.156 10.7121C102.146 10.2819 102.137 9.86141 102.127 9.45074C102.127 9.04008 102.127 8.66852 102.127 8.33608V4.56674H103.271V14.8334H102.2L95.5122 6.06274L95.6882 5.75474C95.7175 6.14585 95.742 6.53208 95.7615 6.91341C95.7908 7.29474 95.8104 7.66141 95.8202 8.01341C95.8397 8.36541 95.8544 8.68808 95.8642 8.98141C95.874 9.27474 95.8788 9.52408 95.8788 9.72941C95.8886 9.93474 95.8935 10.0814 95.8935 10.1694V14.8334H94.7495Z" fill="#001A72"/>
<path d="M81.2828 14.8334V5.68141H78.3494V4.56674H85.4774V5.68141H82.4268V14.8334H81.2828Z" fill="#001A72"/>
<path d="M72.1485 14.9801C71.4152 14.9801 70.7405 14.853 70.1245 14.5987C69.5085 14.3347 68.9756 13.9681 68.5259 13.4987C68.0761 13.0196 67.7241 12.4574 67.4699 11.8121C67.2254 11.1667 67.1032 10.4627 67.1032 9.70007C67.1032 8.94719 67.2254 8.25785 67.4699 7.63207C67.7241 6.99652 68.081 6.44407 68.5405 5.97474C69.0001 5.49563 69.533 5.12896 70.1392 4.87474C70.7454 4.62052 71.4103 4.49341 72.1339 4.49341C72.613 4.49341 73.0872 4.57163 73.5565 4.72808C74.0259 4.87474 74.4561 5.08008 74.8472 5.34408C75.2481 5.60808 75.5756 5.91119 75.8299 6.25341L75.0379 7.07474C74.7934 6.78141 74.5099 6.52719 74.1872 6.31208C73.8743 6.09696 73.5419 5.93074 73.1899 5.81341C72.8379 5.69607 72.4859 5.63741 72.1339 5.63741C71.5863 5.63741 71.073 5.74008 70.5939 5.94541C70.1245 6.14096 69.7187 6.41963 69.3765 6.78141C69.0343 7.14319 68.7654 7.57341 68.5699 8.07208C68.3841 8.57074 68.2912 9.11341 68.2912 9.70007C68.2912 10.3063 68.3841 10.8636 68.5699 11.3721C68.7654 11.8805 69.0392 12.3205 69.3912 12.6921C69.753 13.0539 70.1734 13.3374 70.6525 13.5427C71.1414 13.7383 71.6841 13.8361 72.2805 13.8361C72.6325 13.8361 72.9845 13.7872 73.3365 13.6894C73.6885 13.5819 74.0112 13.4352 74.3045 13.2494C74.5979 13.0636 74.8472 12.8534 75.0525 12.6187L75.6392 13.5721C75.4143 13.8459 75.1112 14.0903 74.7299 14.3054C74.3583 14.5107 73.9476 14.677 73.4979 14.8041C73.0481 14.9214 72.5983 14.9801 72.1485 14.9801Z" fill="#001A72"/>
<path d="M55.5558 14.8334L59.4865 4.56674H60.7918L64.6932 14.8334H63.4465L60.9385 8.17474C60.87 7.98896 60.7918 7.77385 60.7038 7.52941C60.6256 7.27519 60.5376 7.01608 60.4398 6.75208C60.3518 6.4783 60.2638 6.2143 60.1758 5.96008C60.0976 5.70585 60.0243 5.48096 59.9558 5.28541H60.2492C60.1709 5.52985 60.0878 5.77919 59.9998 6.03341C59.9216 6.27785 59.8385 6.52719 59.7505 6.78141C59.6625 7.02585 59.5745 7.2703 59.4865 7.51474C59.3985 7.75919 59.3105 8.00363 59.2225 8.24808L56.7292 14.8334H55.5558ZM57.2278 12.0027L57.6532 10.8881H62.5078L62.9772 12.0027H57.2278Z" fill="#001A72"/>
<path d="M46.3066 14.8334V4.56674H52.5253V5.68141H47.4506V13.7187H52.496V14.8334H46.3066ZM46.8346 10.1107V8.99608H51.704V10.1107H46.8346Z" fill="#001A72"/>
<path d="M35.0111 14.8334V4.56674H39.0297C39.6262 4.56674 40.164 4.70852 40.6431 4.99208C41.132 5.26585 41.5182 5.6423 41.8017 6.12141C42.0853 6.60052 42.2271 7.14319 42.2271 7.74941C42.2271 8.31652 42.0902 8.82985 41.8164 9.28941C41.5426 9.74896 41.1711 10.1156 40.7017 10.3894C40.2324 10.6534 39.7044 10.7854 39.1177 10.7854H36.1551V14.8334H35.0111ZM41.2737 14.8334L38.6924 10.3161L39.7924 9.93474L42.6377 14.8334H41.2737ZM36.1551 9.67074H39.2204C39.5822 9.67074 39.9 9.58763 40.1737 9.42141C40.4475 9.25519 40.6626 9.0303 40.8191 8.74674C40.9755 8.45341 41.0537 8.12096 41.0537 7.74941C41.0537 7.34852 40.9608 6.99163 40.7751 6.67874C40.5893 6.36585 40.3302 6.12141 39.9977 5.94541C39.6751 5.76941 39.3035 5.68141 38.8831 5.68141H36.1551V9.67074Z" fill="#001A72"/>
<path d="M106.86 35.3667C105.82 35.3667 104.9 35.2001 104.1 34.8667C103.313 34.5334 102.686 34.0867 102.22 33.5267L104.16 31.8467C104.573 32.2601 105.04 32.5667 105.56 32.7667C106.08 32.9534 106.573 33.0467 107.04 33.0467C107.226 33.0467 107.393 33.0267 107.54 32.9867C107.686 32.9467 107.806 32.8934 107.9 32.8267C108.006 32.7467 108.086 32.6601 108.14 32.5667C108.193 32.4601 108.22 32.3401 108.22 32.2067C108.22 31.9401 108.1 31.7334 107.86 31.5867C107.74 31.5201 107.54 31.4401 107.26 31.3467C106.98 31.2534 106.62 31.1467 106.18 31.0267C105.553 30.8667 105.006 30.6801 104.54 30.4667C104.086 30.2401 103.713 29.9801 103.42 29.6867C103.153 29.4067 102.946 29.1001 102.8 28.7667C102.653 28.4201 102.58 28.0334 102.58 27.6067C102.58 27.1134 102.693 26.6667 102.92 26.2667C103.16 25.8667 103.473 25.5201 103.86 25.2267C104.26 24.9334 104.713 24.7134 105.22 24.5667C105.74 24.4067 106.273 24.3267 106.82 24.3267C107.406 24.3267 107.966 24.3934 108.5 24.5267C109.033 24.6601 109.526 24.8467 109.98 25.0867C110.446 25.3267 110.86 25.6134 111.22 25.9467L109.54 27.8267C109.3 27.6001 109.026 27.4001 108.72 27.2267C108.426 27.0401 108.12 26.8934 107.8 26.7867C107.48 26.6801 107.186 26.6267 106.92 26.6267C106.72 26.6267 106.54 26.6467 106.38 26.6867C106.233 26.7134 106.106 26.7667 106 26.8467C105.893 26.9134 105.813 27.0001 105.76 27.1067C105.706 27.2001 105.68 27.3134 105.68 27.4467C105.68 27.5801 105.713 27.7067 105.78 27.8267C105.86 27.9467 105.966 28.0467 106.1 28.1267C106.233 28.2067 106.446 28.3001 106.74 28.4067C107.033 28.5001 107.433 28.6201 107.94 28.7667C108.566 28.9401 109.106 29.1334 109.56 29.3467C110.013 29.5601 110.373 29.8134 110.64 30.1067C110.853 30.3334 111.013 30.6001 111.12 30.9067C111.226 31.2001 111.28 31.5201 111.28 31.8667C111.28 32.5467 111.086 33.1534 110.7 33.6867C110.326 34.2067 109.806 34.6201 109.14 34.9267C108.473 35.2201 107.713 35.3667 106.86 35.3667Z" fill="#001A72"/>
<path d="M90.5843 35.1667V24.5467H93.6243L93.7243 26.7067L93.0843 26.9467C93.231 26.4667 93.491 26.0334 93.8643 25.6467C94.251 25.2467 94.711 24.9267 95.2443 24.6867C95.7776 24.4467 96.3376 24.3267 96.9243 24.3267C97.7243 24.3267 98.3976 24.4934 98.9443 24.8267C99.491 25.1467 99.9043 25.6334 100.184 26.2867C100.464 26.9267 100.604 27.7134 100.604 28.6467V35.1667H97.3843V28.9067C97.3843 28.4801 97.3243 28.1267 97.2043 27.8467C97.0843 27.5667 96.8976 27.3601 96.6443 27.2267C96.4043 27.0801 96.1043 27.0134 95.7443 27.0267C95.4643 27.0267 95.2043 27.0734 94.9643 27.1667C94.7243 27.2467 94.5176 27.3734 94.3443 27.5467C94.171 27.7067 94.031 27.8934 93.9243 28.1067C93.831 28.3201 93.7843 28.5534 93.7843 28.8067V35.1667H92.2043C91.831 35.1667 91.511 35.1667 91.2443 35.1667C90.9776 35.1667 90.7576 35.1667 90.5843 35.1667Z" fill="#001A72"/>
<path d="M83.9257 35.3667C82.7523 35.3667 81.7323 35.1334 80.8657 34.6667C79.999 34.1867 79.3256 33.5401 78.8456 32.7267C78.3657 31.9001 78.1256 30.9601 78.1256 29.9067C78.1256 29.0934 78.259 28.3467 78.5257 27.6667C78.7923 26.9867 79.1657 26.4001 79.6457 25.9067C80.1257 25.4001 80.6923 25.0134 81.3456 24.7467C82.0123 24.4667 82.739 24.3267 83.5257 24.3267C84.2723 24.3267 84.9523 24.4601 85.5657 24.7267C86.1923 24.9934 86.7323 25.3667 87.1856 25.8467C87.639 26.3267 87.9856 26.8934 88.2256 27.5467C88.4656 28.2001 88.5723 28.9134 88.5457 29.6867L88.5257 30.5467H80.0657L79.6056 28.7467H85.9257L85.5857 29.1267V28.7267C85.559 28.3934 85.4523 28.1001 85.2657 27.8467C85.0923 27.5801 84.859 27.3734 84.5657 27.2267C84.2723 27.0801 83.939 27.0067 83.5657 27.0067C83.0457 27.0067 82.599 27.1134 82.2257 27.3267C81.8657 27.5267 81.5923 27.8267 81.4057 28.2267C81.219 28.6134 81.1257 29.0934 81.1257 29.6667C81.1257 30.2534 81.2456 30.7667 81.4856 31.2067C81.739 31.6334 82.099 31.9667 82.5657 32.2067C83.0457 32.4467 83.6123 32.5667 84.2657 32.5667C84.719 32.5667 85.119 32.5001 85.4656 32.3667C85.8256 32.2334 86.2123 32.0067 86.6257 31.6867L88.1257 33.8067C87.7123 34.1667 87.2723 34.4601 86.8057 34.6867C86.339 34.9134 85.859 35.0801 85.3657 35.1867C84.8856 35.3067 84.4057 35.3667 83.9257 35.3667Z" fill="#001A72"/>
<path d="M72.2069 35.3667C71.0336 35.3667 70.0136 35.1334 69.1469 34.6667C68.2802 34.1867 67.6069 33.5401 67.1269 32.7267C66.6469 31.9001 66.4069 30.9601 66.4069 29.9067C66.4069 29.0934 66.5402 28.3467 66.8069 27.6667C67.0736 26.9867 67.4469 26.4001 67.9269 25.9067C68.4069 25.4001 68.9736 25.0134 69.6269 24.7467C70.2936 24.4667 71.0202 24.3267 71.8069 24.3267C72.5536 24.3267 73.2336 24.4601 73.8469 24.7267C74.4736 24.9934 75.0136 25.3667 75.4669 25.8467C75.9202 26.3267 76.2669 26.8934 76.5069 27.5467C76.7469 28.2001 76.8536 28.9134 76.8269 29.6867L76.8069 30.5467H68.3469L67.8869 28.7467H74.2069L73.8669 29.1267V28.7267C73.8402 28.3934 73.7336 28.1001 73.5469 27.8467C73.3736 27.5801 73.1402 27.3734 72.8469 27.2267C72.5536 27.0801 72.2202 27.0067 71.8469 27.0067C71.3269 27.0067 70.8802 27.1134 70.5069 27.3267C70.1469 27.5267 69.8736 27.8267 69.6869 28.2267C69.5002 28.6134 69.4069 29.0934 69.4069 29.6667C69.4069 30.2534 69.5269 30.7667 69.7669 31.2067C70.0202 31.6334 70.3802 31.9667 70.8469 32.2067C71.3269 32.4467 71.8936 32.5667 72.5469 32.5667C73.0002 32.5667 73.4002 32.5001 73.7469 32.3667C74.1069 32.2334 74.4936 32.0067 74.9069 31.6867L76.4069 33.8067C75.9936 34.1667 75.5536 34.4601 75.0869 34.6867C74.6202 34.9134 74.1402 35.0801 73.6469 35.1867C73.1669 35.3067 72.6869 35.3667 72.2069 35.3667Z" fill="#001A72"/>
<path d="M58.4945 35.1667V24.5467H61.5345L61.6745 28.0067L61.0745 27.3467C61.2345 26.7734 61.4945 26.2601 61.8545 25.8067C62.2278 25.3534 62.6611 24.9934 63.1545 24.7267C63.6478 24.4601 64.1745 24.3267 64.7345 24.3267C64.9745 24.3267 65.1945 24.3467 65.3945 24.3867C65.6078 24.4267 65.8011 24.4734 65.9745 24.5267L65.0945 28.0667C64.9478 27.9734 64.7478 27.9001 64.4945 27.8467C64.2545 27.7801 64.0011 27.7467 63.7345 27.7467C63.4411 27.7467 63.1678 27.8001 62.9145 27.9067C62.6611 28.0001 62.4478 28.1401 62.2745 28.3267C62.1011 28.5134 61.9611 28.7334 61.8545 28.9867C61.7611 29.2401 61.7145 29.5267 61.7145 29.8467V35.1667H58.4945Z" fill="#001A72"/>
<path d="M52.2561 35.3667C51.2295 35.3667 50.3095 35.1267 49.4961 34.6467C48.6828 34.1667 48.0361 33.5134 47.5561 32.6867C47.0895 31.8467 46.8561 30.9001 46.8561 29.8467C46.8561 28.7934 47.0895 27.8534 47.5561 27.0267C48.0361 26.1867 48.6828 25.5267 49.4961 25.0467C50.3095 24.5667 51.2295 24.3267 52.2561 24.3267C53.2028 24.3267 54.0695 24.4934 54.8561 24.8267C55.6561 25.1601 56.2895 25.6267 56.7561 26.2267L55.0161 28.3067C54.8295 28.0934 54.6095 27.8934 54.3561 27.7067C54.1028 27.5201 53.8228 27.3734 53.5161 27.2667C53.2095 27.1601 52.8895 27.1067 52.5561 27.1067C52.0495 27.1067 51.6028 27.2267 51.2161 27.4667C50.8295 27.6934 50.5295 28.0134 50.3161 28.4267C50.1028 28.8401 49.9961 29.3134 49.9961 29.8467C49.9961 30.3534 50.1028 30.8134 50.3161 31.2267C50.5428 31.6401 50.8495 31.9667 51.2361 32.2067C51.6228 32.4467 52.0628 32.5667 52.5561 32.5667C52.9028 32.5667 53.2228 32.5267 53.5161 32.4467C53.8095 32.3534 54.0761 32.2201 54.3161 32.0467C54.5695 31.8734 54.8028 31.6601 55.0161 31.4067L56.7361 33.5067C56.2828 34.0801 55.6495 34.5334 54.8361 34.8667C54.0361 35.2001 53.1761 35.3667 52.2561 35.3667Z" fill="#001A72"/>
<path d="M39.9004 35.3667C38.9804 35.3667 38.1471 35.2601 37.4004 35.0467C36.6671 34.8201 36.0137 34.5001 35.4404 34.0867C34.8671 33.6601 34.3537 33.1601 33.9004 32.5867L35.9604 30.2467C36.6271 31.1401 37.2937 31.7401 37.9604 32.0467C38.6404 32.3534 39.3404 32.5067 40.0604 32.5067C40.4204 32.5067 40.7471 32.4601 41.0404 32.3667C41.3337 32.2734 41.5604 32.1401 41.7204 31.9667C41.8804 31.7801 41.9604 31.5534 41.9604 31.2867C41.9604 31.0867 41.9071 30.9067 41.8004 30.7467C41.7071 30.5867 41.5737 30.4467 41.4004 30.3267C41.2271 30.2067 41.0204 30.1001 40.7804 30.0067C40.5404 29.9001 40.2871 29.8134 40.0204 29.7467C39.7537 29.6667 39.4804 29.6001 39.2004 29.5467C38.4271 29.3734 37.7537 29.1601 37.1804 28.9067C36.6071 28.6534 36.1271 28.3467 35.7404 27.9867C35.3671 27.6134 35.0871 27.1934 34.9004 26.7267C34.7137 26.2467 34.6204 25.7134 34.6204 25.1267C34.6204 24.5001 34.7604 23.9267 35.0404 23.4067C35.3337 22.8734 35.7204 22.4201 36.2004 22.0467C36.6937 21.6601 37.2604 21.3667 37.9004 21.1667C38.5404 20.9534 39.2071 20.8467 39.9004 20.8467C40.8204 20.8467 41.6071 20.9467 42.2604 21.1467C42.9271 21.3334 43.4937 21.6067 43.9604 21.9667C44.4404 22.3267 44.8471 22.7601 45.1804 23.2667L43.0804 25.2867C42.8004 24.9401 42.4937 24.6534 42.1604 24.4267C41.8404 24.2001 41.4937 24.0267 41.1204 23.9067C40.7604 23.7867 40.3871 23.7267 40.0004 23.7267C39.6004 23.7267 39.2537 23.7801 38.9604 23.8867C38.6804 23.9801 38.4604 24.1201 38.3004 24.3067C38.1404 24.4801 38.0604 24.6934 38.0604 24.9467C38.0604 25.1734 38.1271 25.3667 38.2604 25.5267C38.3937 25.6867 38.5737 25.8334 38.8004 25.9667C39.0271 26.0867 39.2871 26.1934 39.5804 26.2867C39.8737 26.3667 40.1804 26.4334 40.5004 26.4867C41.2337 26.6334 41.8937 26.8267 42.4804 27.0667C43.0804 27.3067 43.5937 27.6001 44.0204 27.9467C44.4604 28.2934 44.7937 28.7067 45.0204 29.1867C45.2604 29.6534 45.3804 30.2001 45.3804 30.8267C45.3804 31.8001 45.1404 32.6267 44.6604 33.3067C44.1937 33.9734 43.5471 34.4867 42.7204 34.8467C41.9071 35.1934 40.9671 35.3667 39.9004 35.3667Z" fill="#001A72"/>
</svg>
