<svg width="110" height="232" viewBox="0 0 111 232" fill="none" xmlns="http://www.w3.org/2000/svg">
<path d="M3.96777 13.148C3.96777 7.62516 8.44493 3.14801 13.9678 3.14801H96.2791C101.802 3.14801 106.279 7.62516 106.279 13.148V219.807C106.279 225.33 101.802 229.807 96.2791 229.807H13.9678C8.44493 229.807 3.96777 225.33 3.96777 219.807V13.148Z" fill="#F4F5FD"/>
<path opacity="0.5" d="M97.622 229.414L3.96777 17.5V11.8051L7.11581 2.75452H96.835L106.673 6.68957V224.5L97.622 229.414Z" fill="white"/>
<path fill-rule="evenodd" clip-rule="evenodd" d="M0.816406 8.84014C0.816406 3.95787 4.79691 0 9.70712 0H101.32C106.23 0 110.211 3.95787 110.211 8.84014V222.541C110.211 227.423 106.23 231.381 101.32 231.381H9.70712C4.79691 231.381 0.816406 227.423 0.816406 222.541V8.84014ZM6.22815 12.2993C6.22815 8.47842 9.34333 5.38095 13.1861 5.38095H34.8499L35.547 9.36698C35.8047 10.8398 37.0903 11.915 38.5937 11.915H72.5422C73.9969 11.915 75.255 10.9068 75.564 9.49333L76.4631 5.38095H97.8411C101.684 5.38095 104.799 8.47841 104.799 12.2993V219.082C104.799 222.903 101.684 226 97.8411 226H13.1861C9.34333 226 6.22815 222.903 6.22815 219.082V12.2993Z" fill="#001A72"/>
</svg>
