<svg width="98" height="100" viewBox="0 0 98 100" fill="none" xmlns="http://www.w3.org/2000/svg">
<path fill-rule="evenodd" clip-rule="evenodd" d="M24.9659 7.47939C31.9858 2.72897 40.4261 0.072332 48.9996 0.00146484C57.5732 0.072332 66.0135 2.72897 73.0333 7.47939C88.4293 14.8797 99.1758 31.7273 97.5143 50.0385C99.1764 68.3015 88.444 85.0947 73.0893 92.5069C66.0498 97.2798 57.5821 99.926 48.9996 99.9985C40.4172 99.926 31.9495 97.2798 24.9099 92.5069C9.55529 85.0947 -1.17714 68.3015 0.485028 50.0385C-1.17651 31.7273 9.56996 14.8797 24.9659 7.47939ZM48.9996 97.0044C51.0184 96.9857 53.0298 96.8133 55.0144 96.4944C53.0287 96.4501 51.0201 96.2515 48.9996 95.8873C46.9792 96.2515 44.9706 96.4501 42.9849 96.4944C44.9695 96.8133 46.9809 96.9857 48.9996 97.0044ZM48.9996 92.8237L49.0096 92.8256C54.3503 91.8019 59.4545 89.5517 63.7132 86.2303C58.7242 86.6119 53.6265 85.7779 49.054 83.743L48.9996 83.7675L48.9453 83.743C44.3727 85.7779 39.2751 86.6119 34.2861 86.2303C38.5448 89.5517 43.649 91.8019 48.9897 92.8256L48.9996 92.8237ZM48.9996 80.384L49.0455 80.4074C51.3873 79.1921 53.5394 77.6021 55.3872 75.6961L55.4071 75.6756L55.4278 75.6558C55.9889 75.1197 56.4666 74.5615 56.9953 73.9437C57.2775 73.6139 57.5744 73.2671 57.9061 72.8977C58.7951 71.9076 59.8527 70.8647 61.2411 70.153L61.3204 70.1123L61.4038 70.0815C62.9443 69.5127 64.5601 69.1492 66.0638 68.8111L66.0665 68.8105C66.3539 68.7458 66.6372 68.6821 66.915 68.618C68.6988 68.2068 70.3225 67.7709 71.8013 67.0087L71.838 66.9898L71.8756 66.973C72.9794 66.4796 74.0341 65.9032 75.0369 65.2535C75.2126 61.2311 74.5014 57.1362 72.9853 53.2554C71.9127 50.6546 72.4591 47.9315 73.3103 45.7451L73.3111 45.7429C74.7456 42.0751 75.2844 38.37 75.0748 34.7794C73.5156 33.7583 71.833 32.9173 70.0393 32.2927L69.9835 32.2733L69.9295 32.2495C68.7889 31.7473 67.5663 31.5091 66.167 31.2366L66.1666 31.2365L66.1659 31.2363C65.7418 31.1537 65.3014 31.0679 64.8422 30.9707C62.9842 30.5772 60.8971 29.9959 59.1936 28.4382L59.1721 28.4185L59.1513 28.398C58.4076 27.6627 57.7118 26.8775 57.0538 26.135L56.8941 25.9548C56.1805 25.1502 55.5042 24.3975 54.7848 23.7154C52.9328 22.0541 50.9945 20.7081 49.0004 19.6539L48.9996 19.6543L48.9989 19.6539C47.0048 20.7081 45.0665 22.0541 43.2145 23.7154C42.4951 24.3975 41.8188 25.1502 41.1052 25.9548L40.9455 26.135C40.2875 26.8775 39.5917 27.6627 38.848 28.398L38.8272 28.4185L38.8057 28.4382C37.1022 29.9959 35.0151 30.5772 33.157 30.9707C32.6979 31.0679 32.2576 31.1537 31.8335 31.2363L31.8326 31.2365L31.8323 31.2366C30.433 31.5091 29.2104 31.7473 28.0698 32.2495L28.0157 32.2733L27.96 32.2927C26.1662 32.9173 24.4837 33.7583 22.9245 34.7794C22.7148 38.37 23.2536 42.0751 24.6881 45.7429L24.689 45.7451C25.5402 47.9315 26.0866 50.6546 25.014 53.2554C23.4979 57.1362 22.7867 61.2311 22.9624 65.2535C23.9652 65.9032 25.0199 66.4796 26.1237 66.973L26.1613 66.9898L26.1979 67.0087C27.6768 67.7709 29.3005 68.2068 31.0842 68.618C31.3602 68.6817 31.6415 68.7449 31.9269 68.8091L31.9355 68.8111C33.4391 69.1492 35.055 69.5127 36.5955 70.0815L36.6789 70.1123L36.7582 70.153C38.1466 70.8647 39.2042 71.9076 40.0932 72.8977C40.4249 73.2671 40.7218 73.6139 41.004 73.9437C41.5327 74.5615 42.0104 75.1197 42.5715 75.6558L42.5922 75.6756L42.6121 75.6961C44.4599 77.6021 46.612 79.1921 48.9538 80.4074L48.9996 80.384ZM48.9996 16.297L49.025 16.3088C53.5972 14.2673 58.6903 13.411 63.6938 13.7845C59.6169 10.5356 54.7016 8.22309 49.3749 7.28684L49.3574 7.28376L49.3399 7.28027C49.2264 7.25749 49.113 7.23527 48.9996 7.2136C48.8863 7.23527 48.7728 7.25749 48.6594 7.28027L48.6419 7.28376L48.6244 7.28684C43.2977 8.22309 38.3824 10.5356 34.3055 13.7845C39.309 13.411 44.4021 14.2673 48.9743 16.3088L48.9996 16.297ZM48.9996 4.14362C51.0696 3.76894 53.1265 3.56786 55.1586 3.52835C53.1284 3.19324 51.0684 3.01233 48.9996 2.99402C46.9308 3.01233 44.8709 3.19324 42.8407 3.52835C44.8728 3.56786 46.9297 3.76894 48.9996 4.14362ZM10.2887 41.1851C10.3145 42.4165 10.4155 43.6484 10.5888 44.871C12.7644 40.2447 15.9688 36.1288 20.0487 33.1194C20.6078 28.0107 22.5249 23.1808 25.4228 18.9716C20.2911 21.0502 15.7873 24.4776 12.2123 28.744C10.9248 32.5644 10.2376 36.7299 10.2887 41.1851ZM7.60292 35.673C7.3877 37.4722 7.28661 39.3248 7.30876 41.2274L7.30884 41.2343L7.30898 41.2412C7.3701 44.1887 7.8263 47.155 8.65127 50.0212C7.69903 53.324 7.23609 56.7607 7.30901 60.1505L7.30909 60.1543C7.34368 61.5944 7.44758 63.0035 7.61682 64.3801C5.38975 60.0814 3.96357 55.3463 3.52759 50.5103L3.52627 50.4957L3.52467 50.4811C3.5085 50.3336 3.4932 50.1862 3.47876 50.0389C3.50235 49.799 3.52824 49.5589 3.55647 49.3185L3.55848 49.3014L3.5601 49.2843C4.00929 44.5334 5.41813 39.8927 7.60292 35.673ZM15.8637 21.0677C19.5877 18.173 23.8549 15.9898 28.5173 14.7885C28.651 14.7515 28.7849 14.7154 28.919 14.6802C32.1929 11.2573 36.1834 8.46491 40.596 6.5701C35.64 6.78296 30.8687 8.02679 26.4901 10.0919C22.2784 12.9819 18.6279 16.6841 15.8637 21.0677ZM12.0417 21.6219C11.0691 23.4161 10.2287 25.3054 9.53725 27.2834C8.09541 29.0612 6.80198 30.9655 5.67362 32.9657C7.1797 28.8466 9.35092 25.0165 12.0417 21.6219ZM45.4787 81.8693C43.6762 80.7233 42.0018 79.367 40.503 77.8243C39.8437 77.1914 39.2016 76.443 38.6212 75.7665L38.621 75.7662L38.6207 75.7658C38.3624 75.4647 38.1163 75.1778 37.8863 74.9217C37.0931 74.0383 36.3496 73.3391 35.4858 72.8787C34.1728 72.4022 32.8087 72.0945 31.3382 71.7628C31.0372 71.6949 30.7318 71.6261 30.4214 71.5545C28.6246 71.1403 26.7025 70.6431 24.881 69.7108C24.3732 69.4829 23.8752 69.2398 23.3872 68.9823C23.9852 72.1902 25.1852 75.2913 27.0313 78.1321L27.0433 78.1505L27.0548 78.1693C28.0207 79.7551 29.1302 81.23 30.3595 82.5882C35.3499 83.7583 40.665 83.4973 45.4787 81.8693ZM25.329 81.0134C25.0533 80.6054 24.7863 80.1899 24.5284 79.767C21.9548 75.8002 20.516 71.4069 20.0912 66.9217C15.9742 63.9133 12.7616 59.7958 10.586 55.1688C10.355 56.798 10.2533 58.4438 10.2885 60.0833C10.3852 64.1021 11.0715 67.8641 12.2451 71.3326C15.7911 75.5587 20.2478 78.9546 25.329 81.0134ZM9.57751 72.8032C8.1125 71 6.8002 69.0659 5.65753 67.0334C7.17113 71.1794 9.36106 75.0333 12.0775 78.4455C11.1091 76.6594 10.2703 74.7768 9.57751 72.8032ZM26.4544 89.9049C22.2776 87.0375 18.6517 83.3639 15.8974 78.9991C19.555 81.833 23.7381 83.9755 28.3114 85.1649C28.4696 85.2101 28.6281 85.254 28.7871 85.2965C32.1632 88.8261 36.2768 91.5732 40.7555 93.4599C35.7312 93.2619 30.8914 92.0043 26.4544 89.9049ZM11.7639 50.0189C13.3484 55.0041 16.1585 59.571 19.9756 62.9723C20.1042 59.2953 20.8834 55.6223 22.2478 52.1347L22.2534 52.1203L22.2593 52.106C22.9 50.562 22.6524 48.7406 21.9162 46.8489C20.6409 43.5878 19.9954 40.3198 19.8935 37.1231C16.1329 40.521 13.3427 45.063 11.7639 50.0189ZM23.426 30.9963C24.5453 30.4054 25.7157 29.8916 26.9348 29.4641C28.3959 28.8308 30.0312 28.5149 31.4645 28.2381L31.4651 28.2379C31.8416 28.1652 32.204 28.0952 32.5458 28.0228C34.3106 27.649 35.7104 27.1963 36.7857 26.2235C37.4479 25.5669 38.0742 24.8603 38.7388 24.1105L38.886 23.9445C39.5999 23.1395 40.3599 22.2904 41.1917 21.5035L41.2058 21.4902L41.2202 21.4772C42.6192 20.2206 44.0635 19.1274 45.5418 18.1887C40.7484 16.5472 35.4595 16.2524 30.4592 17.401C26.9614 21.2791 24.4697 25.9626 23.426 30.9963ZM87.7106 41.1851C87.6848 42.4165 87.5838 43.6484 87.4105 44.871C85.2349 40.2447 82.0304 36.1288 77.9506 33.1194C77.3915 28.0107 75.4744 23.1808 72.5765 18.9716C77.7082 21.0502 82.212 24.4776 85.787 28.744C87.0745 32.5644 87.7617 36.7299 87.7106 41.1851ZM90.3964 35.673C90.6116 37.4722 90.7127 39.3248 90.6905 41.2274L90.6904 41.2343L90.6903 41.2412C90.6292 44.1887 90.173 47.155 89.348 50.0212C90.3003 53.324 90.7632 56.7607 90.6903 60.1505L90.6902 60.1543C90.6556 61.5944 90.5517 63.0035 90.3825 64.3801C92.6095 60.0814 94.0357 55.3463 94.4717 50.5103L94.473 50.4957L94.4746 50.4811C94.4908 50.3336 94.5061 50.1862 94.5205 50.0389C94.4969 49.799 94.471 49.5589 94.4428 49.3185L94.4408 49.3014L94.4392 49.2843C93.99 44.5334 92.5811 39.8927 90.3964 35.673ZM82.1356 21.0677C78.4116 18.173 74.1444 15.9898 69.482 14.7885C69.3483 14.7515 69.2144 14.7154 69.0803 14.6802C65.8063 11.2573 61.8159 8.46491 57.4033 6.5701C62.3592 6.78296 67.1306 8.02679 71.5092 10.0919C75.7209 12.9819 79.3713 16.6841 82.1356 21.0677ZM85.9576 21.6219C86.9302 23.4161 87.7706 25.3054 88.462 27.2834C89.9039 29.0612 91.1973 30.9655 92.3257 32.9657C90.8196 28.8466 88.6484 25.0165 85.9576 21.6219ZM52.5206 81.8693C54.3231 80.7233 55.9975 79.367 57.4962 77.8243C58.1556 77.1914 58.7977 76.443 59.3781 75.7665L59.3783 75.7662L59.3786 75.7658C59.6369 75.4647 59.883 75.1778 60.113 74.9217C60.9062 74.0383 61.6497 73.3391 62.5135 72.8787C63.8265 72.4022 65.1906 72.0945 66.6611 71.7628C66.9621 71.6949 67.2675 71.6261 67.5778 71.5545C69.3747 71.1403 71.2968 70.6431 73.1182 69.7108C73.626 69.4829 74.124 69.2398 74.6121 68.9823C74.0141 72.1902 72.8141 75.2913 70.9679 78.1321L70.956 78.1505L70.9445 78.1693C69.9786 79.7551 68.8691 81.23 67.6398 82.5882C62.6494 83.7583 57.3343 83.4973 52.5206 81.8693ZM72.6702 81.0134C72.9459 80.6054 73.2129 80.1899 73.4709 79.767C76.0445 75.8002 77.4833 71.4069 77.9081 66.9217C82.0251 63.9133 85.2377 59.7958 87.4133 55.1688C87.6443 56.798 87.746 58.4438 87.7108 60.0833C87.6141 64.1021 86.9278 67.8641 85.7542 71.3326C82.2082 75.5587 77.7515 78.9546 72.6702 81.0134ZM88.4218 72.8032C89.8868 71 91.1991 69.0659 92.3418 67.0334C90.8282 71.1794 88.6382 75.0333 85.9218 78.4455C86.8902 76.6594 87.729 74.7768 88.4218 72.8032ZM71.5449 89.9049C75.7216 87.0375 79.3475 83.3639 82.1019 78.9991C78.4443 81.833 74.2612 83.9755 69.6879 85.1649C69.5297 85.2101 69.3711 85.254 69.2122 85.2965C65.8361 88.8261 61.7225 91.5732 57.2437 93.4599C62.2681 93.2619 67.1079 92.0043 71.5449 89.9049ZM86.2354 50.0189C84.6509 55.0041 81.8408 59.571 78.0237 62.9723C77.895 59.2953 77.1158 55.6223 75.7515 52.1347L75.7459 52.1203L75.74 52.106C75.0993 50.562 75.3469 48.7406 76.0831 46.8489C77.3584 43.5878 78.0039 40.3198 78.1057 37.1231C81.8664 40.521 84.6566 45.063 86.2354 50.0189ZM74.5733 30.9963C73.454 30.4054 72.2836 29.8916 71.0645 29.4641C69.6034 28.8308 67.9681 28.5149 66.5348 28.2381L66.5341 28.2379C66.1577 28.1652 65.7952 28.0952 65.4535 28.0228C63.6886 27.649 62.2889 27.1963 61.2136 26.2235C60.5514 25.5669 59.9251 24.8603 59.2605 24.1105L59.1133 23.9445C58.3994 23.1395 57.6394 22.2904 56.8076 21.5035L56.7935 21.4902L56.7791 21.4772C55.3801 20.2206 53.9357 19.1274 52.4575 18.1887C57.2508 16.5472 62.5398 16.2524 67.5401 17.401C71.0379 21.2791 73.5295 25.9626 74.5733 30.9963Z" fill="#7B61C1"/>
</svg>
