<svg width="290" height="159" viewBox="0 0 291 159" fill="none" xmlns="http://www.w3.org/2000/svg">
<path fill-rule="evenodd" clip-rule="evenodd" d="M145.409 125.935C146.74 125.935 150.493 126.373 154.852 128.123C156.323 128.714 158.986 130.741 162.527 133.436C172.096 140.72 188.075 152.882 204.248 154.745C205.929 154.939 207.616 155.147 209.307 155.356C229.91 157.901 251.137 160.522 269.262 137.605C288.875 112.806 297.955 71.2319 277.616 41.6922C257.276 12.1525 223.497 5.95286 187.177 3.40005C161.455 1.59216 150.142 1.84195 146.467 1.92309C145.991 1.93361 145.643 1.9413 145.409 1.9413V125.935ZM145.408 125.935C144.076 125.935 140.323 126.373 135.964 128.123C134.493 128.714 131.83 130.741 128.29 133.436C118.72 140.72 102.741 152.882 86.5685 154.745C84.8875 154.939 83.2004 155.147 81.509 155.356C60.9066 157.901 39.6797 160.522 21.5546 137.605C1.94148 112.806 -7.13867 71.2319 13.2009 41.6922C33.5404 12.1526 67.3191 5.95287 103.64 3.40006C129.362 1.59217 140.674 1.84195 144.349 1.9231C144.825 1.93362 145.173 1.9413 145.408 1.94131V125.935Z" fill="#E5E8FA"/>
<path fill-rule="evenodd" clip-rule="evenodd" d="M145.409 127.638C144.307 127.638 140.768 128.029 136.6 129.703C136.12 129.896 135.326 130.371 134.164 131.185C133.035 131.976 131.676 133 130.095 134.202C129.841 134.395 129.583 134.592 129.319 134.793C126.307 137.085 122.622 139.89 118.491 142.705C109.544 148.801 98.271 155.111 86.7641 156.437C85.1123 156.627 83.4445 156.833 81.7643 157.041C72.3169 158.21 62.4763 159.428 52.8789 158.119C41.4266 156.557 30.3096 151.419 20.2199 138.661C0.316121 113.495 -9.10341 71.0842 11.7993 40.7266C32.6362 10.4646 67.2011 4.25434 103.521 1.70157C118.066 0.679269 128.082 0.221686 134.7 0.065879C138.008 -0.0120067 140.476 -0.0147169 142.242 0.0259715C143.686 0.0592591 144.728 0.0259866 145.409 0.0259866C146.089 0.0259715 147.131 0.0592591 148.576 0.0259715C150.341 -0.0147169 152.809 -0.0120067 156.118 0.065879C162.735 0.221686 172.751 0.679269 187.296 1.70157C223.616 4.25434 258.181 10.4646 279.018 40.7266C299.921 71.0842 290.501 113.495 270.597 138.661C260.508 151.419 249.391 156.557 237.938 158.119C228.341 159.428 218.5 158.21 209.053 157.041L209.052 157.041C207.372 156.833 205.705 156.627 204.053 156.437C192.546 155.111 181.273 148.801 172.326 142.705C168.195 139.89 164.51 137.085 161.498 134.793C161.234 134.592 160.976 134.395 160.722 134.202C159.141 133 157.782 131.976 156.653 131.185C155.491 130.371 154.697 129.896 154.217 129.703C150.049 128.029 146.511 127.638 145.409 127.638ZM103.76 5.09847C118.271 4.07853 128.231 3.62439 134.78 3.47021C138.055 3.39311 140.467 3.39126 142.163 3.43035C143.909 3.47059 145.122 3.37284 145.409 3.43035C145.695 3.37284 146.908 3.47059 148.654 3.43035C150.35 3.39126 152.762 3.39311 156.037 3.47021C162.586 3.62439 172.546 4.07853 187.057 5.09847C223.379 7.65133 256.371 13.8405 276.213 42.6578C295.99 71.3796 287.249 112.118 267.926 136.549C258.403 148.59 248.091 153.298 237.478 154.745C228.359 155.989 219.024 154.838 209.562 153.671C207.859 153.461 206.153 153.251 204.443 153.054C193.794 151.827 183.093 145.92 174.243 139.89C170.19 137.128 166.573 134.375 163.555 132.079L163.185 131.797C163.05 131.694 162.916 131.592 162.783 131.492C161.209 130.295 159.799 129.231 158.607 128.396C157.448 127.585 156.369 126.897 155.487 126.543C150.938 124.716 146.97 124.232 145.409 124.232C143.847 124.232 139.879 124.716 135.331 126.543C134.448 126.897 133.369 127.585 132.211 128.396C131.018 129.231 129.608 130.295 128.034 131.492C127.781 131.684 127.524 131.88 127.262 132.079C124.245 134.375 120.628 137.128 116.574 139.89C107.724 145.92 97.0231 151.827 86.3744 153.054C84.6642 153.251 82.9577 153.461 81.2554 153.671C71.7927 154.838 62.4586 155.989 53.3389 154.745C42.7265 153.298 32.4143 148.59 22.8908 136.549C3.56844 112.118 -5.17233 71.3796 14.604 42.6578C34.4462 13.8405 67.4387 7.65133 103.76 5.09847Z" fill="#001A72"/>
<path opacity="0.5" d="M183.854 16.0911C140.811 9.82537 61.8719 16.0911 67.7338 28.0096C76.9281 46.7386 125.283 28.0096 151.504 28.0096C177.724 28.0096 241.062 42.6522 242.084 38.2254C243.106 33.7985 237.657 23.9232 183.854 16.0911Z" fill="#FCFCFF"/>
<path d="M143.02 115.098C133.213 115.371 117.821 124.52 111.351 129.06C109.081 131.103 102.634 135.598 95.0057 137.233C85.4709 139.276 83.4278 129.06 89.2167 124.633C95.0057 120.206 114.756 105.223 122.588 102.158C130.421 99.0935 138.253 94.6667 151.874 98.4125C165.495 102.158 199.207 119.525 205.337 124.633C211.466 129.741 207.72 132.806 205.337 135.189C202.953 137.573 184.905 135.53 179.116 132.806C173.327 130.082 155.279 114.758 143.02 115.098Z" fill="#C1C6E5"/>
</svg>
