<?xml version="1.0" encoding="UTF-8"?>
<svg xmlns="http://www.w3.org/2000/svg" xmlns:xlink="http://www.w3.org/1999/xlink" width="25px" height="25px" viewBox="0 0 25 25" version="1.1">
<g id="surface1">
<path style=" stroke:none;fill-rule:nonzero;fill:rgb(32.549021%,75.686276%,87.058824%);fill-opacity:1;" d="M 14.59375 12.480469 C 14.59375 11.359375 13.65625 10.453125 12.5 10.453125 C 11.34375 10.453125 10.40625 11.359375 10.40625 12.480469 C 10.40625 13.601562 11.34375 14.511719 12.5 14.511719 C 13.65625 14.511719 14.59375 13.601562 14.59375 12.480469 Z M 14.59375 12.480469 "/>
<path style=" stroke:none;fill-rule:evenodd;fill:rgb(32.549021%,75.686276%,87.058824%);fill-opacity:1;" d="M 19.296875 8.714844 C 19.738281 6.972656 20.292969 3.742188 18.335938 2.648438 C 16.386719 1.558594 13.851562 3.648438 12.511719 4.902344 C 11.175781 3.660156 8.566406 1.578125 6.609375 2.679688 C 4.664062 3.773438 5.261719 6.949219 5.714844 8.699219 C 3.898438 9.199219 0.78125 10.277344 0.78125 12.480469 C 0.78125 14.675781 3.894531 15.851562 5.699219 16.351562 C 5.246094 18.113281 4.675781 21.242188 6.628906 22.335938 C 8.589844 23.433594 11.191406 21.402344 12.542969 20.132812 C 13.890625 21.394531 16.402344 23.4375 18.351562 22.34375 C 20.308594 21.246094 19.800781 18.0625 19.347656 16.296875 C 21.097656 15.796875 24.21875 14.648438 24.21875 12.480469 C 24.21875 10.300781 21.085938 9.210938 19.296875 8.714844 Z M 19.074219 15.363281 C 18.777344 14.453125 18.378906 13.484375 17.886719 12.484375 C 18.355469 11.507812 18.742188 10.554688 19.027344 9.648438 C 20.339844 10.019531 23.21875 10.859375 23.21875 12.480469 C 23.21875 14.117188 20.457031 14.96875 19.074219 15.363281 Z M 17.851562 21.503906 C 16.398438 22.320312 14.234375 20.367188 13.242188 19.4375 C 13.902344 18.738281 14.5625 17.921875 15.203125 17.019531 C 16.339844 16.921875 17.410156 16.761719 18.378906 16.546875 C 18.699219 17.792969 19.3125 20.683594 17.851562 21.503906 Z M 7.128906 21.492188 C 5.671875 20.679688 6.339844 17.886719 6.671875 16.589844 C 7.632812 16.792969 8.695312 16.941406 9.828125 17.03125 C 10.476562 17.917969 11.15625 18.730469 11.84375 19.441406 C 10.996094 20.234375 8.589844 22.308594 7.128906 21.492188 Z M 1.78125 12.480469 C 1.78125 10.839844 4.640625 10.003906 5.984375 9.636719 C 6.277344 10.558594 6.660156 11.527344 7.125 12.503906 C 6.65625 13.496094 6.265625 14.480469 5.96875 15.414062 C 4.691406 15.0625 1.78125 14.125 1.78125 12.480469 Z M 7.113281 3.519531 C 8.574219 2.699219 10.839844 4.695312 11.808594 5.59375 C 11.128906 6.304688 10.457031 7.109375 9.8125 7.988281 C 8.710938 8.089844 7.65625 8.246094 6.683594 8.460938 C 6.320312 7.046875 5.652344 4.335938 7.113281 3.519531 Z M 15.921875 9.042969 C 16.667969 9.136719 17.386719 9.257812 18.058594 9.40625 C 17.855469 10.035156 17.605469 10.691406 17.308594 11.363281 C 16.878906 10.574219 16.417969 9.796875 15.921875 9.042969 Z M 12.511719 6.289062 C 12.972656 6.773438 13.433594 7.3125 13.890625 7.902344 C 12.96875 7.859375 12.042969 7.859375 11.121094 7.902344 C 11.574219 7.320312 12.042969 6.777344 12.511719 6.289062 Z M 7.699219 11.363281 C 7.410156 10.691406 7.160156 10.03125 6.957031 9.398438 C 7.625 9.25 8.335938 9.132812 9.082031 9.042969 C 8.582031 9.792969 8.121094 10.570312 7.699219 11.363281 Z M 9.101562 15.988281 C 8.335938 15.90625 7.609375 15.792969 6.941406 15.652344 C 7.148438 15.003906 7.402344 14.332031 7.703125 13.644531 C 8.128906 14.449219 8.597656 15.230469 9.101562 15.988281 Z M 12.539062 18.742188 C 12.0625 18.246094 11.589844 17.699219 11.128906 17.105469 C 12.058594 17.140625 12.988281 17.140625 13.914062 17.101562 C 13.457031 17.703125 12.996094 18.253906 12.539062 18.742188 Z M 17.316406 13.609375 C 17.632812 14.304688 17.894531 14.972656 18.105469 15.609375 C 17.425781 15.761719 16.691406 15.882812 15.917969 15.972656 C 16.417969 15.203125 16.886719 14.417969 17.316406 13.609375 Z M 14.644531 16.089844 C 13.226562 16.1875 11.796875 16.1875 10.378906 16.097656 C 9.570312 14.953125 8.851562 13.753906 8.234375 12.503906 C 8.851562 11.257812 9.5625 10.058594 10.367188 8.917969 C 11.789062 8.8125 13.21875 8.8125 14.636719 8.917969 C 15.433594 10.058594 16.148438 11.257812 16.777344 12.492188 C 16.152344 13.734375 15.4375 14.9375 14.644531 16.089844 Z M 17.835938 3.488281 C 19.296875 4.308594 18.648438 7.207031 18.328125 8.472656 C 17.355469 8.253906 16.300781 8.089844 15.195312 7.992188 C 14.550781 7.101562 13.882812 6.292969 13.210938 5.59375 C 14.195312 4.675781 16.390625 2.679688 17.835938 3.488281 Z M 17.835938 3.488281 "/>
</g>
</svg>
