<svg width="352" height="225" viewBox="0 0 353 225" fill="none" xmlns="http://www.w3.org/2000/svg">
<path d="M4 11.0259C4 8.25018 6.63723 6 9.89041 6H342.11C345.363 6 348 8.25018 348 11.0259V194.974C348 197.75 345.363 200 342.11 200H9.89041C6.63722 200 4 197.75 4 194.974V11.0259Z" fill="#E5E8FA"/>
<path opacity="0.4" d="M147 200L253.43 5H341.405L350 11.2903V190.439L341.405 200H147Z" fill="#F8F9FF"/>
<path fill-rule="evenodd" clip-rule="evenodd" d="M340.948 1.52588e-05C347.373 1.52588e-05 352.581 5.18669 352.581 11.5848V193.415C352.581 199.813 347.373 205 340.948 205H197.973C199.126 205 203.183 210.641 203.716 211.663C203.744 211.717 203.765 211.768 203.781 211.818L273.593 218.316C275.944 218.535 277.349 221.038 276.312 223.158C276.031 223.732 275.693 224.038 275.373 224.008L176.556 214.81L77.7383 224.008C77.418 224.038 77.0798 223.732 76.7992 223.158C75.7624 221.038 77.1675 218.535 79.5178 218.316L148.107 211.932C148.099 211.789 148.146 211.63 148.262 211.452C148.852 210.546 152.86 205 153.942 205L11.6335 205C5.2085 205 0 199.813 0 193.415V11.5848C0 5.18668 5.2085 0 11.6335 0L340.948 1.52588e-05ZM336.396 7.05161C341.424 7.05161 345.5 11.1107 345.5 16.118V189.889C345.5 194.897 341.424 198.956 336.396 198.956L16.1857 198.956C11.1575 198.956 7.08124 194.897 7.08124 189.889V16.118C7.08124 11.1107 11.1575 7.05159 16.1857 7.05159L336.396 7.05161Z" fill="#001A72"/>
</svg>
